<svg width="16" height="16" viewBox="0 0 16 16" fill="none" xmlns="http://www.w3.org/2000/svg">
<path fill-rule="evenodd" clip-rule="evenodd" d="M12.3807 9.14L13.8074 12.06H13.8207C14.054 12.5333 14.214 12.86 14.1007 13.18C14.0681 13.2953 13.9977 13.3963 13.9007 13.4667C13.614 13.6733 13.1274 13.7 12.5407 13.54C12.3007 13.4733 12.0074 13.4 11.954 13.4133C11.8674 13.4733 11.774 13.7067 11.6874 13.9267C11.374 14.7067 11.0407 15.1 10.6407 15.16H10.4874C10.0114 15.0867 9.85002 14.66 9.58735 13.9627L9.58069 13.9467L8.52735 11.1533L8.51002 11.1547C8.43669 11.1613 8.36869 11.1667 8.29402 11.1667C8.25446 11.1662 8.21557 11.164 8.17735 11.16C8.13913 11.156 8.10024 11.1538 8.06069 11.1533L7.00735 13.94C6.71402 14.72 6.40069 15.0933 5.99402 15.16H5.84069C5.36335 15.0933 5.19602 14.6707 4.91869 13.9707L4.91402 13.96L4.88402 13.886C4.80002 13.6807 4.71535 13.474 4.66735 13.426C4.56735 13.3927 4.29402 13.466 4.04735 13.5327C3.46735 13.6927 2.96735 13.666 2.68069 13.4593C2.61882 13.4195 2.5683 13.3644 2.53402 13.2993C2.33135 12.946 2.49535 12.6047 2.74135 12.0927L2.75469 12.066L4.18135 9.13933C3.51469 8.27267 3.11469 7.186 3.11469 6.006C3.11469 3.15933 5.43469 0.839333 8.28135 0.839333C11.128 0.839333 13.448 3.15933 13.448 6.006C13.448 7.186 13.048 8.266 12.3814 9.13933M5.95469 13.866C5.98802 13.7927 6.02802 13.6993 6.06802 13.5927L6.07469 13.586L7.04802 11.006C6.26441 10.8155 5.53761 10.4406 4.92802 9.91267L3.66802 12.4927L3.60802 12.6127C3.66802 12.606 3.72802 12.5927 3.79469 12.5727C4.30135 12.4327 4.60802 12.3527 4.94135 12.4593C5.04802 12.4927 5.14135 12.5393 5.23469 12.5993C5.52669 12.794 5.64802 13.096 5.83269 13.554L5.84802 13.5927C5.8698 13.6513 5.89224 13.7091 5.91535 13.766L5.95469 13.866ZM8.28802 1.83933C5.98802 1.83933 4.12135 3.706 4.12135 6.006C4.12135 8.306 5.98802 10.1727 8.28802 10.1727C10.588 10.1727 12.4547 8.306 12.4547 6.006C12.4547 3.706 10.588 1.83933 8.28802 1.83933ZM11.6414 12.466C11.9747 12.3593 12.2814 12.4393 12.788 12.5793V12.586C12.8614 12.5993 12.9214 12.6127 12.9747 12.626L12.948 12.5693C12.94 12.5511 12.9311 12.5322 12.9214 12.5127L11.6547 9.91933C11.0547 10.4327 10.328 10.8127 9.53469 11.0127L10.508 13.5927C10.5369 13.6607 10.5636 13.7276 10.588 13.7933L10.6147 13.866C10.6547 13.786 10.7014 13.686 10.748 13.566C10.9347 13.0927 11.048 12.806 11.348 12.606C11.4414 12.546 11.5347 12.4993 11.6414 12.466ZM9.44802 4.25933L10.4947 4.43267H10.5214C10.7947 4.47933 11.0214 4.67267 11.108 4.93933C11.1947 5.21267 11.128 5.506 10.9347 5.71267L10.168 6.51267L10.3347 7.63267C10.3747 7.926 10.2547 8.206 10.0214 8.37267C9.79469 8.53267 9.49469 8.55267 9.24802 8.41933L8.30802 7.91933L7.36802 8.41933C7.26135 8.47933 7.14135 8.506 7.02135 8.506C6.87469 8.506 6.72135 8.466 6.59469 8.37267C6.35469 8.206 6.24135 7.91933 6.28135 7.63267L6.44802 6.51267L5.68135 5.71267C5.48135 5.506 5.41469 5.21267 5.50802 4.93933C5.59469 4.67267 5.82135 4.47933 6.09469 4.43267L7.14135 4.25933L7.62802 3.25933C7.75469 2.99933 8.01469 2.83933 8.29469 2.83933C8.57469 2.83933 8.83469 2.99933 8.96135 3.25933L9.44802 4.25933ZM9.14135 6.53933C9.10802 6.306 9.18135 6.066 9.34135 5.89933L9.87469 5.33933L9.14802 5.21933C9.03071 5.19857 8.91999 5.15028 8.82496 5.07843C8.72993 5.00658 8.6533 4.91321 8.60135 4.806L8.28802 4.15933L7.97469 4.806C7.86802 5.026 7.66135 5.17933 7.42802 5.21933L6.70135 5.33933L7.23469 5.89933C7.39469 6.066 7.46802 6.306 7.43469 6.53933L7.32135 7.29267L7.94135 6.966C8.04802 6.906 8.16802 6.87933 8.28802 6.87933C8.40802 6.87933 8.52802 6.906 8.63469 6.966L9.25469 7.29267L9.14135 6.53933Z" fill="white"/>
</svg>
