<svg width="16" height="16" viewBox="0 0 16 16" fill="none" xmlns="http://www.w3.org/2000/svg">
<g clip-path="url(#clip0_721_822)">
<path d="M4.80668 10L1.77334 4.76C1.64255 4.53391 1.58103 4.27439 1.59644 4.01365C1.61185 3.75291 1.7035 3.50244 1.86001 3.29333L2.93335 1.86667C3.05754 1.70107 3.21859 1.56667 3.40373 1.4741C3.58887 1.38153 3.79302 1.33333 4.00001 1.33333H12C12.207 1.33333 12.4112 1.38153 12.5963 1.4741C12.7814 1.56667 12.9425 1.70107 13.0667 1.86667L14.1333 3.29333C14.2909 3.50177 14.3837 3.75189 14.4003 4.01265C14.4169 4.2734 14.3565 4.53328 14.2267 4.76L11.1933 10M7.33334 8L3.41334 1.46667M8.66668 8L12.5867 1.46667M5.33334 4.66667H10.6667" stroke="white" stroke-width="1.33333" stroke-linecap="round" stroke-linejoin="round"/>
<path d="M7.99996 14.6667C9.84091 14.6667 11.3333 13.1743 11.3333 11.3333C11.3333 9.49238 9.84091 8 7.99996 8C6.15901 8 4.66663 9.49238 4.66663 11.3333C4.66663 13.1743 6.15901 14.6667 7.99996 14.6667Z" stroke="white" stroke-width="1.33333" stroke-linecap="round" stroke-linejoin="round"/>
<path d="M7.99996 12V10.6667H7.66663" stroke="white" stroke-width="1.33333" stroke-linecap="round" stroke-linejoin="round"/>
</g>
<defs>
<clipPath id="clip0_721_822">
<rect width="16" height="16" fill="white"/>
</clipPath>
</defs>
</svg>
