<svg width="16" height="16" viewBox="0 0 16 16" fill="none" xmlns="http://www.w3.org/2000/svg">
<path d="M2.66671 11.3333H2.33337C2.06816 11.3333 1.8138 11.4387 1.62627 11.6262C1.43873 11.8138 1.33337 12.0681 1.33337 12.3333C1.33337 12.5985 1.43873 12.8529 1.62627 13.0404C1.8138 13.228 2.06816 13.3333 2.33337 13.3333H13.6667C13.9319 13.3333 14.1863 13.228 14.3738 13.0404C14.5614 12.8529 14.6667 12.5985 14.6667 12.3333C14.6667 12.0681 14.5614 11.8138 14.3738 11.6262C14.1863 11.4387 13.9319 11.3333 13.6667 11.3333H13.3334M2.66671 11.3333H13.3334M2.66671 11.3333V5.46667C2.66671 4.72 2.66671 4.34667 2.81204 4.06133C2.94004 3.81 3.14337 3.60667 3.39471 3.47867C3.68004 3.33333 4.05337 3.33333 4.80004 3.33333H11.2C11.9467 3.33333 12.32 3.33333 12.6047 3.47867C12.856 3.60667 13.06 3.81 13.188 4.06133C13.3334 4.346 13.3334 4.71933 13.3334 5.46467V11.3333" stroke="white" stroke-width="1.33333" stroke-linecap="round" stroke-linejoin="round"/>
</svg>
