<svg width="16" height="16" viewBox="0 0 16 16" fill="none" xmlns="http://www.w3.org/2000/svg">
<path d="M10.6667 2.668C12.1167 2.676 12.902 2.74067 13.414 3.25267C14 3.83867 14 4.78133 14 6.66667V10.6667C14 12.5527 14 13.4953 13.414 14.0813C12.8287 14.6667 11.8853 14.6667 10 14.6667H6C4.11467 14.6667 3.17133 14.6667 2.586 14.0813C2 13.4947 2 12.5527 2 10.6667V6.66667C2 4.78133 2 3.83867 2.586 3.25267C3.098 2.74067 3.88333 2.676 5.33333 2.668" stroke="#009DC1"/>
<path d="M6.99996 9.33333H11.3333M4.66663 9.33333H4.99996M4.66663 7H4.99996M4.66663 11.6667H4.99996M6.99996 7H11.3333M6.99996 11.6667H11.3333" stroke="#009DC1" stroke-linecap="round"/>
<path d="M5.33337 2.33333C5.33337 2.06812 5.43873 1.81376 5.62627 1.62623C5.8138 1.43869 6.06816 1.33333 6.33337 1.33333H9.66671C9.93192 1.33333 10.1863 1.43869 10.3738 1.62623C10.5614 1.81376 10.6667 2.06812 10.6667 2.33333V3C10.6667 3.26522 10.5614 3.51957 10.3738 3.70711C10.1863 3.89464 9.93192 4 9.66671 4H6.33337C6.06816 4 5.8138 3.89464 5.62627 3.70711C5.43873 3.51957 5.33337 3.26522 5.33337 3V2.33333Z" stroke="#009DC1"/>
</svg>
