<svg width="40" height="45" viewBox="0 0 40 45" fill="none" xmlns="http://www.w3.org/2000/svg">
<path fill-rule="evenodd" clip-rule="evenodd" d="M32.6585 19.3819C35.0438 17.7512 39.5352 14.6223 37.2024 12.9211C35.3591 11.5323 33.4084 10.2921 31.3688 9.2122C31.6119 8.89737 31.8276 8.56468 32.016 8.21412C32.7644 6.66988 30.5626 5.86198 29.9707 5.54055C29.4039 5.19807 28.7879 4.94463 28.1441 4.78908C23.7776 3.51491 24.1453 3.47418 22.7125 3.10183C21.5364 2.78654 20.323 2.63215 19.1054 2.64289C18.8092 2.68653 18.5316 2.81389 18.3054 3.00996C18.0791 3.20603 17.9135 3.46267 17.8282 3.74965C17.6769 4.02819 16.4906 8.26064 16.2998 9.02715C15.9336 10.4183 15.8078 10.6221 15.055 13.5C15.055 14.5 14.555 16 15.555 16C15.5981 16.0294 16.0038 15.9894 16.055 16C16.055 15.5 16.055 15.5 16.055 15.5C16.055 15 16.055 15.0859 16.055 15C16.0258 15.0433 16.0986 14.9712 16.055 15C16.055 13.5 16.2253 12.5875 18.0981 7.45344C19.3301 8.55827 23.4182 7.35637 24.2343 5.05385C28.0694 6.27989 27.979 5.80998 29.4294 6.53749C29.882 6.78328 31.1318 7.13289 31.2093 7.65437C31.2435 7.86827 30.6862 8.61764 30.6371 8.84645C30.0336 8.51873 26.7825 6.99216 26.1195 7.21674C25.3627 7.65983 24.749 8.31076 24.3511 9.09226C23.9916 9.58831 20.1923 14.9822 20.0085 15.5421C19.9798 15.5967 19.9634 15.657 19.9604 15.7187C19.9575 15.7803 19.9681 15.8419 19.9915 15.899C20.015 15.9561 20.0506 16.0074 20.096 16.0493C20.1413 16.0912 20.1953 16.1226 20.2541 16.1414C20.4398 16.2422 24.1204 11.3685 24.1824 11.2819C24.5646 11.6473 25.0293 11.915 25.537 12.0626C26.0448 12.2101 26.5806 12.233 27.0991 12.1294C27.7134 12.0628 28.3043 11.8566 28.8268 11.5267C29.3492 11.1968 29.7894 10.7518 30.1135 10.2257L32.9871 11.7862C32.634 12.1739 32.3713 12.635 32.2178 13.1363C32.0643 13.6377 32.0238 14.1669 32.0994 14.6857C32.1749 15.2046 32.3645 15.7003 32.6545 16.1371C32.9446 16.5739 33.3278 16.941 33.7768 17.2119C33.2295 17.6661 32.6597 18.1066 32.0731 18.553L31.2025 19.3261C30.555 20.5 31.1125 21.3443 31.555 21C31.7012 20.869 31.6504 20.217 32.6585 19.3819ZM18.4112 6.60302C18.7363 5.72759 19.1006 4.53083 19.1132 4.50762C19.4619 3.61644 19.5646 4.0915 20.5169 4.18933C21.4316 4.28536 22.3342 4.47392 23.2109 4.7521C22.5568 5.56912 19.3886 6.95344 18.41 6.60238M27.0539 10.6351C24.9643 11.0017 25.4533 10.8179 24.7541 10.5585C25.2401 9.89059 25.7616 9.25307 26.3187 8.64591C26.4232 8.70263 27.5967 9.05438 29.2643 9.8247C28.7257 10.3738 27.5578 10.5346 27.0539 10.6351ZM33.6681 14.783C33.1395 12.9946 33.708 12.4181 33.7415 12.3011C34.6804 12.8109 35.5488 13.4478 36.4141 14.0379C36.9015 14.3026 35.0275 16.1208 34.6066 16.5084C34.1299 16.0389 33.8037 15.438 33.6699 14.7824" fill="white"/>
<path fill-rule="evenodd" clip-rule="evenodd" d="M25.3639 18.9223C26.1196 19.0019 26.8024 19.477 27.2575 20.1355C27.6545 20.7098 27.0347 22.3152 28.025 21.4376C28.652 20.3724 28.3246 19.6978 27.4919 18.8998C27.0712 18.515 26.55 18.2583 25.9792 18.1546C25.4083 18.0509 24.8071 18.1037 24.2338 18.308C23.6378 18.5915 23.1193 19.0405 22.7388 19.5976C22.2261 20.0466 23.229 20.209 23.7603 19.7055C24.4704 19.0324 24.878 18.871 25.3639 18.9223Z" fill="white"/>
<path fill-rule="evenodd" clip-rule="evenodd" d="M14.055 13.6287C12.0085 13.9137 10.759 14.6614 10.6216 15.6559C10.5933 15.8618 10.5233 16.2745 10.4323 16.8107C10.2562 17.8482 10.0016 19.3486 9.81913 20.7101C5.8333 21.0343 3.97941 22.9326 3.5923 24.8146C3.13497 27.0412 4.39551 29.9457 8.56504 31.6233C10.9452 32.5808 14.2909 32.1146 16.883 30.3875C16.7691 29.925 16.8105 29.4379 17.0009 29.0013C17.1913 28.5646 17.52 28.2028 17.9365 27.9715C18.3529 27.7402 18.8338 27.6524 19.3051 27.7216C19.7764 27.7907 20.2118 28.013 20.5442 28.3542C20.8766 28.6953 21.0876 29.1364 21.1445 29.6093C21.2014 30.0822 21.1011 30.5607 20.8591 30.971C20.6171 31.3813 20.2469 31.7005 19.8055 31.8795C19.3641 32.0585 18.876 32.0873 18.4166 31.9615C15.2728 34.2165 11.2862 34.956 8.07044 33.7741C8.03103 34.0683 7.93035 34.5091 7.84646 34.8764C7.78667 35.1382 7.7354 35.3626 7.72093 35.47C7.59862 36.37 10.2083 39.8652 15.5399 41.4585C20.8749 43.0399 24.9712 41.5406 25.3619 40.7222C25.5103 40.4075 26.6514 37.935 28.0521 34.9C30.2933 30.0438 33.1993 23.7471 33.7672 22.5447C33.9729 22.1092 33.9331 21.5813 33.6641 21L31.2045 22.0021C31.2187 22.0683 31.2188 22.1257 31.2045 22.1734C30.9843 22.9132 26.6115 23.7658 21.2773 22.1814C15.9449 20.5911 12.7501 17.4861 12.9703 16.7463C13.0305 16.5407 13.4153 16.3302 14.055 16.1683L14.055 13.6287ZM5.71716 25.2497C5.91976 24.2702 7.05546 23.2255 9.52123 22.9228L8.67511 29.2594C6.43061 28.0852 5.47213 26.4479 5.71716 25.2497Z" fill="white"/>
</svg>
