<svg width="16" height="16" viewBox="0 0 16 16" fill="none" xmlns="http://www.w3.org/2000/svg">
<path d="M11.7187 2.95467L10.3854 2.25467C9.21471 1.64067 8.62937 1.33333 8.00004 1.33333C7.37071 1.33333 6.78537 1.64 5.61471 2.25467L5.40071 2.36733L11.3494 5.76667L14.0267 4.42667C13.596 3.93867 12.9014 3.574 11.7187 2.95333M14.4987 5.30933L11.8334 6.64267V8.66667C11.8334 8.79927 11.7807 8.92645 11.6869 9.02022C11.5932 9.11399 11.466 9.16667 11.3334 9.16667C11.2008 9.16667 11.0736 9.11399 10.9798 9.02022C10.8861 8.92645 10.8334 8.79927 10.8334 8.66667V7.14267L8.50004 8.30933V14.6027C8.97871 14.4833 9.52337 14.198 10.3854 13.7453L11.7187 13.0453C13.1527 12.2927 13.87 11.9167 14.2687 11.24C14.6667 10.564 14.6667 9.722 14.6667 8.04V7.962C14.6667 6.7 14.6667 5.91067 14.4987 5.30933ZM7.50004 14.6027V8.30933L1.50137 5.30933C1.33337 5.91067 1.33337 6.7 1.33337 7.96067V8.03867C1.33337 9.722 1.33337 10.564 1.73137 11.24C2.13004 11.9167 2.84737 12.2933 4.28137 13.046L5.61471 13.7453C6.47671 14.198 7.02137 14.4833 7.50004 14.6027ZM1.97337 4.42733L8.00004 7.44067L10.274 6.304L4.35004 2.91867L4.28137 2.95467C3.09937 3.57467 2.40404 3.93933 1.97337 4.428" fill="white"/>
</svg>
