<svg width="16" height="16" viewBox="0 0 16 16" fill="none" xmlns="http://www.w3.org/2000/svg">
<path d="M8.00004 1.33333C8.25026 1.33333 8.49693 1.34688 8.74004 1.37399C8.82706 1.38363 8.91134 1.4103 8.98805 1.4525C9.06476 1.4947 9.13241 1.5516 9.18714 1.61994C9.24186 1.68828 9.28259 1.76674 9.30699 1.85082C9.3314 1.9349 9.339 2.02297 9.32937 2.10999C9.31974 2.19702 9.29307 2.28129 9.25087 2.358C9.20867 2.43472 9.15177 2.50237 9.08343 2.55709C9.01509 2.61182 8.93663 2.65254 8.85255 2.67695C8.76846 2.70135 8.6804 2.70896 8.59337 2.69933C7.49474 2.57642 6.38506 2.79795 5.41782 3.33328C4.45059 3.8686 3.67361 4.69126 3.19435 5.68746C2.71509 6.68366 2.55724 7.80417 2.74264 8.89401C2.92803 9.98384 3.4475 10.9891 4.2292 11.7708C5.0109 12.5525 6.01619 13.072 7.10603 13.2574C8.19586 13.4428 9.31637 13.2849 10.3126 12.8057C11.3088 12.3264 12.1314 11.5494 12.6668 10.5822C13.2021 9.61498 13.4236 8.5053 13.3007 7.40666C13.2911 7.31964 13.2987 7.23157 13.3231 7.14749C13.3475 7.0634 13.3882 6.98495 13.4429 6.91661C13.5535 6.77858 13.7143 6.69011 13.89 6.67066C14.0658 6.65121 14.2421 6.70238 14.3801 6.8129C14.4484 6.86762 14.5053 6.93527 14.5475 7.01199C14.5897 7.0887 14.6164 7.17297 14.626 7.26C14.6527 7.50311 14.6663 7.74977 14.6667 8C14.6667 11.682 11.682 14.6667 8.00004 14.6667C4.31804 14.6667 1.33337 11.682 1.33337 8C1.33337 4.318 4.31804 1.33333 8.00004 1.33333ZM7.97871 5.25133C8.02264 5.42248 7.99684 5.60407 7.90696 5.7562C7.81708 5.90833 7.67048 6.01856 7.49937 6.06266C7.02929 6.1858 6.62006 6.47578 6.34807 6.87847C6.07607 7.28116 5.95988 7.76906 6.02117 8.25113C6.08247 8.73319 6.31707 9.17649 6.6812 9.49829C7.04532 9.82009 7.5141 9.99842 8.00004 10C8.44358 10.0002 8.87459 9.85293 9.22529 9.58139C9.576 9.30986 9.82649 8.92945 9.93737 8.5C9.98463 8.33223 10.0957 8.18964 10.2468 8.10278C10.3979 8.01591 10.577 7.99167 10.7458 8.03526C10.9145 8.07884 11.0595 8.18678 11.1497 8.33595C11.2398 8.48512 11.2679 8.66366 11.228 8.83333C11.0235 9.61728 10.5406 10.3 9.86948 10.7538C9.19836 11.2077 8.38495 11.4017 7.58121 11.2997C6.77748 11.1976 6.0384 10.8064 5.50204 10.1992C4.96569 9.59192 4.66875 8.81018 4.66671 8C4.66659 7.26092 4.91211 6.54277 5.36465 5.95844C5.8172 5.37412 6.4511 4.95676 7.16671 4.772C7.2515 4.75014 7.33976 4.7452 7.42646 4.75747C7.51316 4.76973 7.59659 4.79895 7.672 4.84346C7.7474 4.88797 7.8133 4.9469 7.86592 5.01689C7.91855 5.08687 7.95687 5.16653 7.97871 5.25133ZM12.336 1.41799C12.4577 1.46845 12.5617 1.55382 12.6349 1.66333C12.7082 1.77285 12.7473 1.9016 12.7474 2.03333V3.25333H13.9667C14.0985 3.25336 14.2274 3.29247 14.337 3.36573C14.4466 3.43898 14.532 3.54309 14.5825 3.66489C14.6329 3.78669 14.6461 3.92071 14.6204 4.05002C14.5947 4.17932 14.5312 4.29809 14.438 4.39133L12.08 6.74666C11.955 6.87169 11.7855 6.94196 11.6087 6.942H10L8.78137 8.16133C8.65628 8.28642 8.48662 8.3567 8.30971 8.3567C8.1328 8.3567 7.96313 8.28642 7.83804 8.16133C7.71295 8.03623 7.64267 7.86657 7.64267 7.68966C7.64267 7.51275 7.71295 7.34309 7.83804 7.21799L9.05737 6V4.39066C9.05741 4.21387 9.12767 4.04432 9.25271 3.91933L11.6094 1.56199C11.7026 1.46871 11.8214 1.40517 11.9508 1.37942C12.0801 1.35366 12.2142 1.36686 12.336 1.41733M11.414 3.64199L10.3907 4.66666V5.60933H11.3334L12.3574 4.586H12.0807C11.9039 4.586 11.7343 4.51576 11.6093 4.39073C11.4843 4.26571 11.414 4.09614 11.414 3.91933V3.64199Z" fill="white"/>
</svg>
