<svg width="16" height="16" viewBox="0 0 16 16" fill="none" xmlns="http://www.w3.org/2000/svg">
<path fill-rule="evenodd" clip-rule="evenodd" d="M4.83332 3.64067V4.58733L3.70399 4.67933C3.31601 4.71056 2.9497 4.87097 2.66364 5.13492C2.37757 5.39887 2.18827 5.75111 2.12599 6.13533C2.09843 6.30733 2.0731 6.47955 2.04999 6.652C2.0448 6.69372 2.0529 6.73602 2.07312 6.77288C2.09335 6.80974 2.12468 6.83929 2.16266 6.85733L2.21399 6.88133C5.83332 8.59467 10.1673 8.59467 13.786 6.88133L13.8373 6.85733C13.8752 6.83919 13.9064 6.8096 13.9265 6.77274C13.9466 6.73589 13.9546 6.69365 13.9493 6.652C13.9267 6.47942 13.9016 6.30718 13.874 6.13533C13.8117 5.75111 13.6224 5.39887 13.3363 5.13492C13.0503 4.87097 12.684 4.71056 12.296 4.67933L11.1667 4.588V3.64133C11.1667 3.3619 11.0665 3.09173 10.8842 2.87995C10.7019 2.66817 10.4497 2.52885 10.1733 2.48733L9.35999 2.36533C8.45833 2.23056 7.54165 2.23056 6.63999 2.36533L5.82666 2.48733C5.55044 2.52883 5.29828 2.66805 5.116 2.87969C4.93372 3.09133 4.83342 3.36135 4.83332 3.64067ZM9.21132 3.354C8.40822 3.23405 7.59176 3.23405 6.78866 3.354L5.97532 3.476C5.93586 3.4819 5.89983 3.50177 5.87377 3.53199C5.84772 3.5622 5.83336 3.60077 5.83332 3.64067V4.51733C7.27659 4.43491 8.72339 4.43491 10.1667 4.51733V3.64067C10.1666 3.60077 10.1523 3.5622 10.1262 3.53199C10.1002 3.50177 10.0641 3.4819 10.0247 3.476L9.21132 3.354Z" fill="white"/>
<path d="M14.0787 8.04667C14.0774 8.02511 14.0708 8.0042 14.0597 7.98573C14.0485 7.96726 14.033 7.95179 14.0145 7.94064C13.996 7.92949 13.975 7.923 13.9535 7.92173C13.9319 7.92046 13.9104 7.92444 13.8907 7.93333C10.1767 9.578 5.82338 9.578 2.10938 7.93333C2.0897 7.92444 2.06816 7.92046 2.0466 7.92173C2.02504 7.923 2.00412 7.92949 1.98562 7.94064C1.96713 7.95179 1.95162 7.96726 1.94043 7.98573C1.92924 8.0042 1.9227 8.02511 1.92138 8.04667C1.85385 9.32299 1.92246 10.6029 2.12604 11.8647C2.18818 12.249 2.37743 12.6014 2.66351 12.8655C2.94959 13.1296 3.31597 13.2901 3.70404 13.3213L4.95204 13.4213C6.98071 13.5853 9.01871 13.5853 11.048 13.4213L12.296 13.3213C12.6841 13.2901 13.0505 13.1296 13.3366 12.8655C13.6227 12.6014 13.8119 12.249 13.874 11.8647C14.078 10.6013 14.1474 9.32133 14.0787 8.04733" fill="white"/>
</svg>
